<svg id="Слой_1" data-name="Слой 1" xmlns="http://www.w3.org/2000/svg" viewBox="0 0 990.43 198.04"><defs><style>.cls-1{fill:#44a761;}.cls-2{fill:#2e2014;}</style></defs><path class="cls-1" d="M113.93,500.55a9.75,9.75,0,1,1-9.74-9.74A9.76,9.76,0,0,1,113.93,500.55Z" transform="translate(-5.16 -401.23)"/><path class="cls-2" d="M200.94,500.55a9.37,9.37,0,0,1-15.61,7,9.49,9.49,0,0,1-1.51-1.71,9.4,9.4,0,0,1,0-10.58,9.1,9.1,0,0,1,1.51-1.7,9.37,9.37,0,0,1,15.61,7Z" transform="translate(-5.16 -401.23)"/><circle class="cls-2" cx="210.24" cy="66.01" r="9.37"/><circle class="cls-2" cx="222.7" cy="131.84" r="9.37"/><path class="cls-2" d="M104.18,599.27a99,99,0,1,1,83.35-152.5l-8.9,5.73a88.44,88.44,0,1,0-.24,95.87l8.87,5.77A98.75,98.75,0,0,1,104.18,599.27Z" transform="translate(-5.16 -401.23)"/><path class="cls-1" d="M232.36,533.07a4.5,4.5,0,1,1-4.49-4.49A4.5,4.5,0,0,1,232.36,533.07Z" transform="translate(-5.16 -401.23)"/><path class="cls-2" d="M200.61,498.11a9.37,9.37,0,0,0-16.78-2.85h-60a20.34,20.34,0,1,0,0,10.58h60a9.37,9.37,0,0,0,16.78-7.73Zm-96.42,12.2a9.75,9.75,0,1,1,9.74-9.76A9.77,9.77,0,0,1,104.19,510.31Zm87.37-5.26a4.5,4.5,0,1,1,4.49-4.5A4.51,4.51,0,0,1,191.56,505.05Z" transform="translate(-5.16 -401.23)"/><path class="cls-1" d="M196.05,500.55a4.5,4.5,0,1,1-4.49-4.49A4.5,4.5,0,0,1,196.05,500.55Z" transform="translate(-5.16 -401.23)"/><path class="cls-2" d="M236.91,530.63a9.36,9.36,0,0,0-16.78-2.84H143.94l0,0s0,0,0,0a48.15,48.15,0,1,1,.11-54.31h64.41a9.37,9.37,0,1,0-1.33-10.58H149.25a58.74,58.74,0,1,0-.12,75.47h71a9.36,9.36,0,0,0,16.77-7.74ZM215.4,462.74a4.5,4.5,0,1,1-4.5,4.49A4.49,4.49,0,0,1,215.4,462.74Zm12.47,74.83a4.5,4.5,0,1,1,4.49-4.5A4.51,4.51,0,0,1,227.87,537.57Z" transform="translate(-5.16 -401.23)"/><path class="cls-1" d="M219.89,467.23a4.5,4.5,0,1,1-4.49-4.49A4.5,4.5,0,0,1,219.89,467.23Z" transform="translate(-5.16 -401.23)"/><path class="cls-1" d="M304.31,479.24H283.8V460.93h64.64v18.31H327.93V531H304.31Z" transform="translate(-5.16 -401.23)"/><path class="cls-1" d="M423.78,513.16V531H365.55v-70h56.93v17.81H388.76v8.2h29.62v17H388.76v9.21Z" transform="translate(-5.16 -401.23)"/><path class="cls-1" d="M460.1,527.92a34.77,34.77,0,0,1-14-13,38.12,38.12,0,0,1,0-37.92,34.77,34.77,0,0,1,14-13,42.59,42.59,0,0,1,20-4.65,43.91,43.91,0,0,1,18.21,3.6,33.75,33.75,0,0,1,13.21,10.41l-14.91,13.3q-6.5-8.2-15.31-8.2-7.4,0-11.9,4.75T464.9,496q0,8,4.51,12.76a15.66,15.66,0,0,0,11.9,4.75q8.81,0,15.31-8.21l14.91,13.31A33.75,33.75,0,0,1,498.32,529a43.91,43.91,0,0,1-18.21,3.6A42.59,42.59,0,0,1,460.1,527.92Z" transform="translate(-5.16 -401.23)"/><path class="cls-1" d="M598.38,460.93v70H574.77V505.15H553V531H529.34v-70H553v24.81h21.82V460.93Z" transform="translate(-5.16 -401.23)"/><path class="cls-2" d="M637,527.92a34.77,34.77,0,0,1-14-13A38.12,38.12,0,0,1,623,477a34.77,34.77,0,0,1,14-13,42.53,42.53,0,0,1,20-4.65,44,44,0,0,1,18.21,3.6,33.82,33.82,0,0,1,13.21,10.41l-14.91,13.3q-6.51-8.2-15.31-8.2-7.41,0-11.91,4.75T641.8,496q0,8,4.5,12.76t11.91,4.75q8.81,0,15.31-8.21l14.91,13.31A33.82,33.82,0,0,1,675.22,529a44,44,0,0,1-18.21,3.6A42.53,42.53,0,0,1,637,527.92Z" transform="translate(-5.16 -401.23)"/><path class="cls-2" d="M753,518.76H726.35L721.65,531h-24l30.62-70h23.21l30.62,70H757.67Zm-6.5-17-6.81-17.61-6.8,17.61Z" transform="translate(-5.16 -401.23)"/><circle class="cls-2" cx="974.67" cy="120.7" r="15.76"/><path class="cls-2" d="M995.51,520.37v-.11c-.06-.5-.14-1-.25-1.5a8.61,8.61,0,0,0-.23-.94c0-.14-.08-.28-.11-.39a1.5,1.5,0,0,0-.14-.39,7.65,7.65,0,0,0-.41-1.17.1.1,0,0,1,0-.08,13.36,13.36,0,0,0-.67-1.37,14.14,14.14,0,0,0-1.56-2.33c-.25-.31-.5-.61-.77-.89s-.59-.61-.89-.89a9.56,9.56,0,0,0-1-.83c-.33-.25-.66-.5-1-.73a14.16,14.16,0,0,0-2.23-1.22c-.39-.16-.78-.33-1.19-.47a6.51,6.51,0,0,0-1.06-.33,2.4,2.4,0,0,0-.44-.12,4.92,4.92,0,0,0-.78-.16,6.59,6.59,0,0,0-1.11-.17.74.74,0,0,0-.25,0,15.2,15.2,0,0,0-1.53-.08c-.45,0-.86,0-1.31.06s-.72.08-1.08.13-.7.12-1.06.17l-1.22.33a16.69,16.69,0,0,0-2.84,1.2,18.84,18.84,0,0,0-1.94,1.25c-.31.22-.59.47-.86.7a10.67,10.67,0,0,0-.84.77c-.36.36-.69.73-1,1.12s-.58.75-.86,1.13v0l-61.16,0V504h29.62v-17H905.65v-8.2h33.72V460.93H882.44V513.1l-30.56,0-2.56-3.76a24.08,24.08,0,0,0,9.81-8.91,25.17,25.17,0,0,0-11.61-36.32,41.41,41.41,0,0,0-16.91-3.2H796.89v70H820.5V513.36h6.41L838.81,531H967q.36.53.72,1a17.12,17.12,0,0,0,1.73,1.78c.22.2.47.39.69.58l.92.67h0c.25.17.52.34.8.5a8.85,8.85,0,0,0,.84.47c.27.14.55.28.86.42a17.23,17.23,0,0,0,3.69,1.09c.34,0,.64.11,1,.13a14.62,14.62,0,0,0,1.64.09,12.71,12.71,0,0,0,1.53-.09,10.12,10.12,0,0,0,1.36-.19,4.07,4.07,0,0,0,.78-.17,1.77,1.77,0,0,0,.44-.11,6.51,6.51,0,0,0,1.06-.33c.41-.14.8-.31,1.19-.47a13.44,13.44,0,0,0,2.23-1.23,12.44,12.44,0,0,0,1-.72,9.56,9.56,0,0,0,1-.83c.3-.28.61-.59.89-.89s.77-.89,1.14-1.36c.08-.09.13-.2.19-.28a14.23,14.23,0,0,0,1-1.59,13.2,13.2,0,0,0,.67-1.36.09.09,0,0,1,0-.08,6.27,6.27,0,0,0,.33-1,.24.24,0,0,0,0-.13,5,5,0,0,0,.2-.62L995,526c.09-.33.17-.66.25-1s.17-.91.23-1.39v-.16c0-.5.08-1,.08-1.53S995.56,520.9,995.51,520.37Zm-159.2-27q-2.4,2.14-7.2,2.15H820.5V479.14h8.61q4.8,0,7.2,2.15a8.84,8.84,0,0,1,0,12.11Zm143.55,36.09a7.56,7.56,0,1,1,7.53-7.56A7.59,7.59,0,0,1,979.86,529.49Z" transform="translate(-5.16 -401.23)"/><path class="cls-1" d="M987.39,521.92a7.56,7.56,0,1,1-7.54-7.55A7.56,7.56,0,0,1,987.39,521.92Z" transform="translate(-5.16 -401.23)"/></svg>