<svg id="Слой_1" data-name="Слой 1" xmlns="http://www.w3.org/2000/svg" viewBox="0 0 711.79 456.9"><defs><style>.cls-1{fill:#44a761;}.cls-2{fill:#2e2014;}</style></defs><path class="cls-1" d="M164.62,670H144.11V651.69h64.63V670H188.23v51.73H164.62Z" transform="translate(-144.11 -271.55)"/><path class="cls-1" d="M284.09,703.92v17.81H225.85v-70h56.94V669.5H249.07v8.2h29.61v17H249.07v9.21Z" transform="translate(-144.11 -271.55)"/><path class="cls-1" d="M320.41,718.68a34.71,34.71,0,0,1-14-13,38.05,38.05,0,0,1,0-37.92,34.71,34.71,0,0,1,14-13,42.53,42.53,0,0,1,20-4.65,44,44,0,0,1,18.21,3.6,33.72,33.72,0,0,1,13.2,10.41l-14.9,13.3q-6.51-8.21-15.31-8.2-7.41,0-11.91,4.75t-4.5,12.76q0,8,4.5,12.76t11.91,4.75q8.81,0,15.31-8.21l14.9,13.31a33.72,33.72,0,0,1-13.2,10.41,44,44,0,0,1-18.21,3.6A42.53,42.53,0,0,1,320.41,718.68Z" transform="translate(-144.11 -271.55)"/><path class="cls-1" d="M458.68,651.69v70H435.07V695.91H413.26v25.82H389.64v-70h23.62V676.5h21.81V651.69Z" transform="translate(-144.11 -271.55)"/><path class="cls-2" d="M497.3,718.68a34.74,34.74,0,0,1-13.95-13,38.05,38.05,0,0,1,0-37.92,34.74,34.74,0,0,1,13.95-13,42.59,42.59,0,0,1,20-4.65,43.91,43.91,0,0,1,18.21,3.6,33.75,33.75,0,0,1,13.21,10.41l-14.91,13.3q-6.5-8.21-15.31-8.2-7.39,0-11.9,4.75t-4.5,12.76q0,8,4.5,12.76a15.66,15.66,0,0,0,11.9,4.75q8.81,0,15.31-8.21l14.91,13.31a33.75,33.75,0,0,1-13.21,10.41,43.91,43.91,0,0,1-18.21,3.6A42.59,42.59,0,0,1,497.3,718.68Z" transform="translate(-144.11 -271.55)"/><path class="cls-2" d="M613.27,709.52H586.65L582,721.73h-24l30.61-70h23.22l30.61,70H618Zm-6.51-17L600,674.9l-6.8,17.61Z" transform="translate(-144.11 -271.55)"/><path class="cls-1" d="M486.93,438.49a16.39,16.39,0,1,1-16.37-16.37A16.41,16.41,0,0,1,486.93,438.49Z" transform="translate(-144.11 -271.55)"/><path class="cls-2" d="M633.18,438.49A15.74,15.74,0,0,1,607,450.25a15.72,15.72,0,0,1-2.53-20.66,15.76,15.76,0,0,1,28.76,8.9Z" transform="translate(-144.11 -271.55)"/><circle class="cls-2" cx="513.38" cy="110.94" r="15.76"/><circle class="cls-2" cx="534.33" cy="221.6" r="15.76"/><path class="cls-2" d="M470.55,604.41c-91.77,0-166.43-74.66-166.43-166.43s74.66-166.43,166.43-166.43A165.89,165.89,0,0,1,610.64,348.1l-15,9.61a148.18,148.18,0,0,0-125.13-68.37c-82,0-148.64,66.68-148.64,148.64s66.68,148.64,148.64,148.64a148.26,148.26,0,0,0,124.73-67.76l14.92,9.7A166,166,0,0,1,470.55,604.41Z" transform="translate(-144.11 -271.55)"/><path class="cls-1" d="M686,493.15a7.56,7.56,0,1,1-7.54-7.55A7.56,7.56,0,0,1,686,493.15Z" transform="translate(-144.11 -271.55)"/><path class="cls-2" d="M632.62,434.39a15.74,15.74,0,0,0-28.19-4.8H503.53a34.19,34.19,0,1,0,0,17.79H604.42a15.73,15.73,0,0,0,28.2-4.79,15.29,15.29,0,0,0,0-8.2Zm-162.06,20.5a16.39,16.39,0,1,1,16.37-16.4A16.44,16.44,0,0,1,470.56,454.89Zm146.86-8.84a7.56,7.56,0,1,1,7.55-7.56A7.57,7.57,0,0,1,617.42,446.05Z" transform="translate(-144.11 -271.55)"/><path class="cls-1" d="M625,438.49a7.56,7.56,0,1,1-7.55-7.55A7.56,7.56,0,0,1,625,438.49Z" transform="translate(-144.11 -271.55)"/><path class="cls-2" d="M693.65,489.05a15.75,15.75,0,0,0-28.21-4.79H537.38l0,0s0,0,0,0a80.93,80.93,0,1,1,.2-91.27H645.78a15.75,15.75,0,0,0,27.47-10.5,15.75,15.75,0,0,0-29.72-7.29H546.3a98.73,98.73,0,1,0-.2,126.85H665.45a15.74,15.74,0,0,0,28.2-13ZM657.5,374.94a7.56,7.56,0,1,1-7.57,7.55A7.55,7.55,0,0,1,657.5,374.94Zm21,125.77a7.56,7.56,0,1,1,7.54-7.56A7.58,7.58,0,0,1,678.45,500.71Z" transform="translate(-144.11 -271.55)"/><path class="cls-1" d="M665,382.49a7.56,7.56,0,1,1-7.54-7.55A7.56,7.56,0,0,1,665,382.49Z" transform="translate(-144.11 -271.55)"/><circle class="cls-2" cx="696.03" cy="441.14" r="15.76"/><path class="cls-2" d="M855.81,711.13V711c-.06-.5-.14-1-.25-1.5-.06-.33-.14-.64-.22-.94,0-.14-.09-.28-.11-.39a2,2,0,0,0-.14-.39,6.72,6.72,0,0,0-.42-1.17.1.1,0,0,1,0-.08,11.5,11.5,0,0,0-.66-1.37,15.52,15.52,0,0,0-1.56-2.33,11,11,0,0,0-.78-.89,12.45,12.45,0,0,0-.89-.89,9.46,9.46,0,0,0-1-.83c-.34-.25-.67-.5-1-.73a14.06,14.06,0,0,0-2.22-1.22c-.39-.17-.78-.33-1.2-.47a6.11,6.11,0,0,0-1.05-.33,2.5,2.5,0,0,0-.45-.12,4.92,4.92,0,0,0-.78-.16,6.59,6.59,0,0,0-1.11-.17.72.72,0,0,0-.25,0,15.2,15.2,0,0,0-1.53-.08c-.44,0-.86,0-1.3.06s-.73.08-1.09.13-.69.12-1,.17l-1.23.33a16.59,16.59,0,0,0-2.83,1.2,18,18,0,0,0-1.95,1.25c-.3.22-.58.47-.86.7a10.47,10.47,0,0,0-.83.77c-.36.36-.7.73-1,1.11s-.59.76-.86,1.14v0l-61.17,0v-9.14h29.62v-17H766v-8.2h33.72V651.69H742.74v52.17l-30.55,0-2.57-3.76a24.08,24.08,0,0,0,9.81-8.91,24.72,24.72,0,0,0,3.4-13.11,25.12,25.12,0,0,0-3.9-14,24.81,24.81,0,0,0-11.11-9.21,41.41,41.41,0,0,0-16.91-3.2H657.19v70h23.62V704.12h6.4l11.91,17.61H827.26c.24.35.49.68.73,1a18.08,18.08,0,0,0,1.72,1.78c.22.2.47.39.7.58l.91.67h0c.25.17.53.34.81.5a8.72,8.72,0,0,0,.83.47l.86.42a17.15,17.15,0,0,0,3.7,1.09c.33,0,.64.11,1,.13a14.75,14.75,0,0,0,1.64.09,12.71,12.71,0,0,0,1.53-.09,9.9,9.9,0,0,0,1.36-.19,4.07,4.07,0,0,0,.78-.17,1.85,1.85,0,0,0,.45-.11,6.11,6.11,0,0,0,1.05-.33c.42-.14.81-.31,1.2-.47a13.35,13.35,0,0,0,2.22-1.23c.36-.22.69-.47,1-.72a9.46,9.46,0,0,0,1-.83c.31-.28.61-.59.89-.89s.78-.89,1.14-1.36a2,2,0,0,0,.19-.28,14.3,14.3,0,0,0,1-1.59,11.37,11.37,0,0,0,.66-1.36.09.09,0,0,1,0-.08,5.38,5.38,0,0,0,.33-1s.06-.08.06-.13a4.89,4.89,0,0,0,.19-.62l.09-.25c.08-.33.16-.66.25-1s.16-.91.22-1.39v-.16a13.07,13.07,0,0,0,.08-1.53A13.58,13.58,0,0,0,855.81,711.13Zm-159.19-27c-1.6,1.43-4,2.15-7.21,2.15h-8.6V669.9h8.6c3.2,0,5.61.72,7.21,2.15a8.84,8.84,0,0,1,0,12.11Zm143.54,36.09a7.56,7.56,0,1,1,7.53-7.56A7.59,7.59,0,0,1,840.16,720.25Z" transform="translate(-144.11 -271.55)"/><path class="cls-1" d="M847.7,712.68a7.56,7.56,0,1,1-7.55-7.55A7.57,7.57,0,0,1,847.7,712.68Z" transform="translate(-144.11 -271.55)"/></svg>